<svg width="34" height="38" viewBox="0 0 34 38" fill="none" xmlns="http://www.w3.org/2000/svg">
<path d="M4.75 2.375C2.13008 2.375 0 4.50508 0 7.125V30.875C0 33.4949 2.13008 35.625 4.75 35.625H28.5C31.1199 35.625 33.25 33.4949 33.25 30.875V7.125C33.25 4.50508 31.1199 2.375 28.5 2.375H4.75ZM26.8004 8.60938L19.0965 17.4117L28.1586 29.3906H21.0633L15.5117 22.1246L9.15117 29.3906H5.62578L13.8641 19.9723L5.17305 8.60938H12.4465L17.4711 15.252L23.275 8.60938H26.8004ZM23.9949 27.2828L11.3852 10.6059H9.28477L22.0355 27.2828H23.9875H23.9949Z" fill="#1C31C8"/>
</svg>
