<svg width="134" height="799" viewBox="0 0 134 799" fill="none" xmlns="http://www.w3.org/2000/svg">
<mask id="path-1-outside-1_89_2" maskUnits="userSpaceOnUse" x="-0.640625" y="0.399994" width="135" height="799" fill="black">
<rect fill="white" x="-0.640625" y="0.399994" width="135" height="799"/>
<path d="M63.4424 2.39999H122.706C123.218 2.39999 123.56 2.61333 123.73 3.03999C123.986 3.38133 123.944 3.76533 123.602 4.19199L114.13 16.608C113.021 17.9733 111.613 18.656 109.906 18.656H78.2904V39.136H110.29C111.314 39.136 111.826 39.648 111.826 40.672V53.728C111.826 54.8373 111.314 55.392 110.29 55.392H78.2904V90.464C78.2904 91.488 77.7358 92 76.6264 92H63.4424C63.0158 92 62.6318 91.872 62.2904 91.616C62.0344 91.2747 61.9064 90.8907 61.9064 90.464V3.936C61.9064 3.50933 62.0344 3.168 62.2904 2.91199C62.6318 2.57066 63.0158 2.39999 63.4424 2.39999Z"/>
<path d="M42.6519 231.208L108.444 145.448C109.553 144.083 110.961 143.4 112.668 143.4H124.828C125.852 143.4 126.364 143.912 126.364 144.936V231.464C126.364 232.488 125.852 233 124.828 233H112.668C110.961 233 109.553 232.317 108.444 230.952L86.2999 202.024L64.0279 230.952C62.9186 232.317 61.5106 233 59.8039 233H43.5479C43.1213 233 42.7799 232.829 42.5239 232.488C42.2679 232.061 42.3106 231.635 42.6519 231.208ZM96.924 188.2L110.108 205.352V171.048L96.924 188.2Z"/>
<path d="M48.4689 372.464V285.936C48.4689 285.509 48.5969 285.168 48.8529 284.912C49.1943 284.571 49.5783 284.4 50.0049 284.4H62.1649C63.8716 284.4 65.2796 285.083 66.3889 286.448L112.469 346.352V285.936C112.469 284.912 112.981 284.4 114.005 284.4H127.189C128.213 284.4 128.725 284.912 128.725 285.936V372.464C128.725 373.488 128.213 374 127.189 374H115.029C113.322 374 111.914 373.317 110.805 371.952L64.8529 312.048V372.464C64.8529 373.488 64.2983 374 63.1889 374H50.0049C49.5783 374 49.1943 373.872 48.8529 373.616C48.5969 373.275 48.4689 372.891 48.4689 372.464Z"/>
<path d="M42.6519 513.208L108.444 427.448C109.553 426.083 110.961 425.4 112.668 425.4H124.828C125.852 425.4 126.364 425.912 126.364 426.936V513.464C126.364 514.488 125.852 515 124.828 515H112.668C110.961 515 109.553 514.317 108.444 512.952L86.2999 484.024L64.0279 512.952C62.9186 514.317 61.5106 515 59.8039 515H43.5479C43.1213 515 42.7799 514.829 42.5239 514.488C42.2679 514.061 42.3106 513.635 42.6519 513.208ZM96.924 470.2L110.108 487.352V453.048L96.924 470.2Z"/>
<path d="M53.4689 567.68C53.4689 567.253 53.5969 566.912 53.8529 566.656C54.1943 566.315 54.5783 566.144 55.0049 566.144H122.589C123.016 566.144 123.357 566.315 123.613 566.656C123.954 566.912 124.125 567.253 124.125 567.68V586.496C124.125 587.691 123.741 588.757 122.973 589.696L102.749 616.192L131.677 653.952C131.933 654.379 131.933 654.805 131.677 655.232C131.506 655.573 131.208 655.744 130.781 655.744H114.525C112.818 655.744 111.41 655.061 110.301 653.696L82.2689 617.216C81.6716 616.533 81.6716 615.893 82.2689 615.296L107.485 582.4H69.8529V654.208C69.8529 655.232 69.2983 655.744 68.1889 655.744H55.0049C54.5783 655.744 54.1943 655.616 53.8529 655.36C53.5969 655.019 53.4689 654.635 53.4689 654.208V567.68Z"/>
<path d="M55.1139 708.68C55.1139 708.253 55.2419 707.912 55.4979 707.656C55.8393 707.315 56.2233 707.144 56.6499 707.144H112.202C113.909 707.144 115.317 707.827 116.426 709.192L125.898 721.608C126.239 722.035 126.282 722.461 126.026 722.888C125.855 723.229 125.514 723.4 125.002 723.4H96.4579V795.208C96.4579 796.232 95.9459 796.744 94.9219 796.744H81.7379C80.7139 796.744 80.202 796.232 80.202 795.208V723.4H56.6499C56.2233 723.4 55.8393 723.272 55.4979 723.016C55.2419 722.675 55.1139 722.291 55.1139 721.864V708.68Z"/>
<path d="M23.4424 2.39999H82.7065C83.2185 2.39999 83.5598 2.61333 83.7305 3.03999C83.9865 3.38133 83.9438 3.76533 83.6024 4.19199L74.1304 16.608C73.0211 17.9733 71.6131 18.656 69.9064 18.656H38.2904V39.136H70.2905C71.3145 39.136 71.8264 39.648 71.8264 40.672V53.728C71.8264 54.8373 71.3145 55.392 70.2905 55.392H38.2904V90.464C38.2904 91.488 37.7358 92 36.6264 92H23.4424C23.0158 92 22.6318 91.872 22.2904 91.616C22.0344 91.2747 21.9064 90.8907 21.9064 90.464V3.936C21.9064 3.50933 22.0344 3.168 22.2904 2.91199C22.6318 2.57066 23.0158 2.39999 23.4424 2.39999ZM2.65195 231.208L68.4439 145.448C69.5533 144.083 70.9613 143.4 72.668 143.4H84.8279C85.852 143.4 86.364 143.912 86.364 144.936V231.464C86.364 232.488 85.852 233 84.8279 233H72.668C70.9613 233 69.5533 232.317 68.4439 230.952L46.2999 202.024L24.0279 230.952C22.9186 232.317 21.5106 233 19.8039 233H3.54795C3.12128 233 2.77995 232.829 2.52395 232.488C2.26795 232.061 2.31061 231.635 2.65195 231.208ZM56.924 188.2L70.1079 205.352V171.048L56.924 188.2ZM8.46895 372.464V285.936C8.46895 285.509 8.59695 285.168 8.85295 284.912C9.19428 284.571 9.57828 284.4 10.0049 284.4H22.1649C23.8716 284.4 25.2796 285.083 26.3889 286.448L72.4689 346.352V285.936C72.4689 284.912 72.9809 284.4 74.005 284.4H87.1889C88.213 284.4 88.725 284.912 88.725 285.936V372.464C88.725 373.488 88.213 374 87.1889 374H75.029C73.3223 374 71.9143 373.317 70.8049 371.952L24.8529 312.048V372.464C24.8529 373.488 24.2983 374 23.1889 374H10.0049C9.57828 374 9.19428 373.872 8.85295 373.616C8.59695 373.275 8.46895 372.891 8.46895 372.464ZM2.65195 513.208L68.4439 427.448C69.5533 426.083 70.9613 425.4 72.668 425.4H84.8279C85.852 425.4 86.364 425.912 86.364 426.936V513.464C86.364 514.488 85.852 515 84.8279 515H72.668C70.9613 515 69.5533 514.317 68.4439 512.952L46.2999 484.024L24.0279 512.952C22.9186 514.317 21.5106 515 19.8039 515H3.54795C3.12128 515 2.77995 514.829 2.52395 514.488C2.26795 514.061 2.31061 513.635 2.65195 513.208ZM56.924 470.2L70.1079 487.352V453.048L56.924 470.2ZM13.4689 567.68C13.4689 567.253 13.5969 566.912 13.8529 566.656C14.1943 566.315 14.5783 566.144 15.0049 566.144H82.589C83.0156 566.144 83.3569 566.315 83.613 566.656C83.9543 566.912 84.1249 567.253 84.1249 567.68V586.496C84.1249 587.691 83.741 588.757 82.973 589.696L62.749 616.192L91.6769 653.952C91.933 654.379 91.933 654.805 91.6769 655.232C91.5063 655.573 91.2076 655.744 90.781 655.744H74.5249C72.8183 655.744 71.4103 655.061 70.3009 653.696L42.2689 617.216C41.6716 616.533 41.6716 615.893 42.2689 615.296L67.4849 582.4H29.8529V654.208C29.8529 655.232 29.2983 655.744 28.1889 655.744H15.0049C14.5783 655.744 14.1943 655.616 13.8529 655.36C13.5969 655.019 13.4689 654.635 13.4689 654.208V567.68ZM15.1139 708.68C15.1139 708.253 15.2419 707.912 15.4979 707.656C15.8393 707.315 16.2233 707.144 16.6499 707.144H72.202C73.9086 707.144 75.3166 707.827 76.4259 709.192L85.8979 721.608C86.2393 722.035 86.282 722.461 86.0259 722.888C85.8553 723.229 85.514 723.4 85.002 723.4H56.458V795.208C56.458 796.232 55.9459 796.744 54.9219 796.744H41.7379C40.7139 796.744 40.2019 796.232 40.2019 795.208V723.4H16.6499C16.2233 723.4 15.8393 723.272 15.4979 723.016C15.2419 722.675 15.1139 722.291 15.1139 721.864V708.68Z"/>
</mask>
<path d="M63.4424 2.39999H122.706C123.218 2.39999 123.56 2.61333 123.73 3.03999C123.986 3.38133 123.944 3.76533 123.602 4.19199L114.13 16.608C113.021 17.9733 111.613 18.656 109.906 18.656H78.2904V39.136H110.29C111.314 39.136 111.826 39.648 111.826 40.672V53.728C111.826 54.8373 111.314 55.392 110.29 55.392H78.2904V90.464C78.2904 91.488 77.7358 92 76.6264 92H63.4424C63.0158 92 62.6318 91.872 62.2904 91.616C62.0344 91.2747 61.9064 90.8907 61.9064 90.464V3.936C61.9064 3.50933 62.0344 3.168 62.2904 2.91199C62.6318 2.57066 63.0158 2.39999 63.4424 2.39999Z" fill="white"/>
<path d="M42.6519 231.208L108.444 145.448C109.553 144.083 110.961 143.4 112.668 143.4H124.828C125.852 143.4 126.364 143.912 126.364 144.936V231.464C126.364 232.488 125.852 233 124.828 233H112.668C110.961 233 109.553 232.317 108.444 230.952L86.2999 202.024L64.0279 230.952C62.9186 232.317 61.5106 233 59.8039 233H43.5479C43.1213 233 42.7799 232.829 42.5239 232.488C42.2679 232.061 42.3106 231.635 42.6519 231.208ZM96.924 188.2L110.108 205.352V171.048L96.924 188.2Z" fill="white"/>
<path d="M48.4689 372.464V285.936C48.4689 285.509 48.5969 285.168 48.8529 284.912C49.1943 284.571 49.5783 284.4 50.0049 284.4H62.1649C63.8716 284.4 65.2796 285.083 66.3889 286.448L112.469 346.352V285.936C112.469 284.912 112.981 284.4 114.005 284.4H127.189C128.213 284.4 128.725 284.912 128.725 285.936V372.464C128.725 373.488 128.213 374 127.189 374H115.029C113.322 374 111.914 373.317 110.805 371.952L64.8529 312.048V372.464C64.8529 373.488 64.2983 374 63.1889 374H50.0049C49.5783 374 49.1943 373.872 48.8529 373.616C48.5969 373.275 48.4689 372.891 48.4689 372.464Z" fill="white"/>
<path d="M42.6519 513.208L108.444 427.448C109.553 426.083 110.961 425.4 112.668 425.4H124.828C125.852 425.4 126.364 425.912 126.364 426.936V513.464C126.364 514.488 125.852 515 124.828 515H112.668C110.961 515 109.553 514.317 108.444 512.952L86.2999 484.024L64.0279 512.952C62.9186 514.317 61.5106 515 59.8039 515H43.5479C43.1213 515 42.7799 514.829 42.5239 514.488C42.2679 514.061 42.3106 513.635 42.6519 513.208ZM96.924 470.2L110.108 487.352V453.048L96.924 470.2Z" fill="white"/>
<path d="M53.4689 567.68C53.4689 567.253 53.5969 566.912 53.8529 566.656C54.1943 566.315 54.5783 566.144 55.0049 566.144H122.589C123.016 566.144 123.357 566.315 123.613 566.656C123.954 566.912 124.125 567.253 124.125 567.68V586.496C124.125 587.691 123.741 588.757 122.973 589.696L102.749 616.192L131.677 653.952C131.933 654.379 131.933 654.805 131.677 655.232C131.506 655.573 131.208 655.744 130.781 655.744H114.525C112.818 655.744 111.41 655.061 110.301 653.696L82.2689 617.216C81.6716 616.533 81.6716 615.893 82.2689 615.296L107.485 582.4H69.8529V654.208C69.8529 655.232 69.2983 655.744 68.1889 655.744H55.0049C54.5783 655.744 54.1943 655.616 53.8529 655.36C53.5969 655.019 53.4689 654.635 53.4689 654.208V567.68Z" fill="white"/>
<path d="M55.1139 708.68C55.1139 708.253 55.2419 707.912 55.4979 707.656C55.8393 707.315 56.2233 707.144 56.6499 707.144H112.202C113.909 707.144 115.317 707.827 116.426 709.192L125.898 721.608C126.239 722.035 126.282 722.461 126.026 722.888C125.855 723.229 125.514 723.4 125.002 723.4H96.4579V795.208C96.4579 796.232 95.9459 796.744 94.9219 796.744H81.7379C80.7139 796.744 80.202 796.232 80.202 795.208V723.4H56.6499C56.2233 723.4 55.8393 723.272 55.4979 723.016C55.2419 722.675 55.1139 722.291 55.1139 721.864V708.68Z" fill="white"/>
<path d="M63.4424 2.39999H122.706C123.218 2.39999 123.56 2.61333 123.73 3.03999C123.986 3.38133 123.944 3.76533 123.602 4.19199L114.13 16.608C113.021 17.9733 111.613 18.656 109.906 18.656H78.2904V39.136H110.29C111.314 39.136 111.826 39.648 111.826 40.672V53.728C111.826 54.8373 111.314 55.392 110.29 55.392H78.2904V90.464C78.2904 91.488 77.7358 92 76.6264 92H63.4424C63.0158 92 62.6318 91.872 62.2904 91.616C62.0344 91.2747 61.9064 90.8907 61.9064 90.464V3.936C61.9064 3.50933 62.0344 3.168 62.2904 2.91199C62.6318 2.57066 63.0158 2.39999 63.4424 2.39999Z" stroke="white" stroke-width="4" mask="url(#path-1-outside-1_89_2)"/>
<path d="M42.6519 231.208L108.444 145.448C109.553 144.083 110.961 143.4 112.668 143.4H124.828C125.852 143.4 126.364 143.912 126.364 144.936V231.464C126.364 232.488 125.852 233 124.828 233H112.668C110.961 233 109.553 232.317 108.444 230.952L86.2999 202.024L64.0279 230.952C62.9186 232.317 61.5106 233 59.8039 233H43.5479C43.1213 233 42.7799 232.829 42.5239 232.488C42.2679 232.061 42.3106 231.635 42.6519 231.208ZM96.924 188.2L110.108 205.352V171.048L96.924 188.2Z" stroke="white" stroke-width="4" mask="url(#path-1-outside-1_89_2)"/>
<path d="M48.4689 372.464V285.936C48.4689 285.509 48.5969 285.168 48.8529 284.912C49.1943 284.571 49.5783 284.4 50.0049 284.4H62.1649C63.8716 284.4 65.2796 285.083 66.3889 286.448L112.469 346.352V285.936C112.469 284.912 112.981 284.4 114.005 284.4H127.189C128.213 284.4 128.725 284.912 128.725 285.936V372.464C128.725 373.488 128.213 374 127.189 374H115.029C113.322 374 111.914 373.317 110.805 371.952L64.8529 312.048V372.464C64.8529 373.488 64.2983 374 63.1889 374H50.0049C49.5783 374 49.1943 373.872 48.8529 373.616C48.5969 373.275 48.4689 372.891 48.4689 372.464Z" stroke="white" stroke-width="4" mask="url(#path-1-outside-1_89_2)"/>
<path d="M42.6519 513.208L108.444 427.448C109.553 426.083 110.961 425.4 112.668 425.4H124.828C125.852 425.4 126.364 425.912 126.364 426.936V513.464C126.364 514.488 125.852 515 124.828 515H112.668C110.961 515 109.553 514.317 108.444 512.952L86.2999 484.024L64.0279 512.952C62.9186 514.317 61.5106 515 59.8039 515H43.5479C43.1213 515 42.7799 514.829 42.5239 514.488C42.2679 514.061 42.3106 513.635 42.6519 513.208ZM96.924 470.2L110.108 487.352V453.048L96.924 470.2Z" stroke="white" stroke-width="4" mask="url(#path-1-outside-1_89_2)"/>
<path d="M53.4689 567.68C53.4689 567.253 53.5969 566.912 53.8529 566.656C54.1943 566.315 54.5783 566.144 55.0049 566.144H122.589C123.016 566.144 123.357 566.315 123.613 566.656C123.954 566.912 124.125 567.253 124.125 567.68V586.496C124.125 587.691 123.741 588.757 122.973 589.696L102.749 616.192L131.677 653.952C131.933 654.379 131.933 654.805 131.677 655.232C131.506 655.573 131.208 655.744 130.781 655.744H114.525C112.818 655.744 111.41 655.061 110.301 653.696L82.2689 617.216C81.6716 616.533 81.6716 615.893 82.2689 615.296L107.485 582.4H69.8529V654.208C69.8529 655.232 69.2983 655.744 68.1889 655.744H55.0049C54.5783 655.744 54.1943 655.616 53.8529 655.36C53.5969 655.019 53.4689 654.635 53.4689 654.208V567.68Z" stroke="white" stroke-width="4" mask="url(#path-1-outside-1_89_2)"/>
<path d="M55.1139 708.68C55.1139 708.253 55.2419 707.912 55.4979 707.656C55.8393 707.315 56.2233 707.144 56.6499 707.144H112.202C113.909 707.144 115.317 707.827 116.426 709.192L125.898 721.608C126.239 722.035 126.282 722.461 126.026 722.888C125.855 723.229 125.514 723.4 125.002 723.4H96.4579V795.208C96.4579 796.232 95.9459 796.744 94.9219 796.744H81.7379C80.7139 796.744 80.202 796.232 80.202 795.208V723.4H56.6499C56.2233 723.4 55.8393 723.272 55.4979 723.016C55.2419 722.675 55.1139 722.291 55.1139 721.864V708.68Z" stroke="white" stroke-width="4" mask="url(#path-1-outside-1_89_2)"/>
<path d="M23.4424 2.39999H82.7065C83.2185 2.39999 83.5598 2.61333 83.7305 3.03999C83.9865 3.38133 83.9438 3.76533 83.6024 4.19199L74.1304 16.608C73.0211 17.9733 71.6131 18.656 69.9064 18.656H38.2904V39.136H70.2905C71.3145 39.136 71.8264 39.648 71.8264 40.672V53.728C71.8264 54.8373 71.3145 55.392 70.2905 55.392H38.2904V90.464C38.2904 91.488 37.7358 92 36.6264 92H23.4424C23.0158 92 22.6318 91.872 22.2904 91.616C22.0344 91.2747 21.9064 90.8907 21.9064 90.464V3.936C21.9064 3.50933 22.0344 3.168 22.2904 2.91199C22.6318 2.57066 23.0158 2.39999 23.4424 2.39999ZM2.65195 231.208L68.4439 145.448C69.5533 144.083 70.9613 143.4 72.668 143.4H84.8279C85.852 143.4 86.364 143.912 86.364 144.936V231.464C86.364 232.488 85.852 233 84.8279 233H72.668C70.9613 233 69.5533 232.317 68.4439 230.952L46.2999 202.024L24.0279 230.952C22.9186 232.317 21.5106 233 19.8039 233H3.54795C3.12128 233 2.77995 232.829 2.52395 232.488C2.26795 232.061 2.31061 231.635 2.65195 231.208ZM56.924 188.2L70.1079 205.352V171.048L56.924 188.2ZM8.46895 372.464V285.936C8.46895 285.509 8.59695 285.168 8.85295 284.912C9.19428 284.571 9.57828 284.4 10.0049 284.4H22.1649C23.8716 284.4 25.2796 285.083 26.3889 286.448L72.4689 346.352V285.936C72.4689 284.912 72.9809 284.4 74.005 284.4H87.1889C88.213 284.4 88.725 284.912 88.725 285.936V372.464C88.725 373.488 88.213 374 87.1889 374H75.029C73.3223 374 71.9143 373.317 70.8049 371.952L24.8529 312.048V372.464C24.8529 373.488 24.2983 374 23.1889 374H10.0049C9.57828 374 9.19428 373.872 8.85295 373.616C8.59695 373.275 8.46895 372.891 8.46895 372.464ZM2.65195 513.208L68.4439 427.448C69.5533 426.083 70.9613 425.4 72.668 425.4H84.8279C85.852 425.4 86.364 425.912 86.364 426.936V513.464C86.364 514.488 85.852 515 84.8279 515H72.668C70.9613 515 69.5533 514.317 68.4439 512.952L46.2999 484.024L24.0279 512.952C22.9186 514.317 21.5106 515 19.8039 515H3.54795C3.12128 515 2.77995 514.829 2.52395 514.488C2.26795 514.061 2.31061 513.635 2.65195 513.208ZM56.924 470.2L70.1079 487.352V453.048L56.924 470.2ZM13.4689 567.68C13.4689 567.253 13.5969 566.912 13.8529 566.656C14.1943 566.315 14.5783 566.144 15.0049 566.144H82.589C83.0156 566.144 83.3569 566.315 83.613 566.656C83.9543 566.912 84.1249 567.253 84.1249 567.68V586.496C84.1249 587.691 83.741 588.757 82.973 589.696L62.749 616.192L91.6769 653.952C91.933 654.379 91.933 654.805 91.6769 655.232C91.5063 655.573 91.2076 655.744 90.781 655.744H74.5249C72.8183 655.744 71.4103 655.061 70.3009 653.696L42.2689 617.216C41.6716 616.533 41.6716 615.893 42.2689 615.296L67.4849 582.4H29.8529V654.208C29.8529 655.232 29.2983 655.744 28.1889 655.744H15.0049C14.5783 655.744 14.1943 655.616 13.8529 655.36C13.5969 655.019 13.4689 654.635 13.4689 654.208V567.68ZM15.1139 708.68C15.1139 708.253 15.2419 707.912 15.4979 707.656C15.8393 707.315 16.2233 707.144 16.6499 707.144H72.202C73.9086 707.144 75.3166 707.827 76.4259 709.192L85.8979 721.608C86.2393 722.035 86.282 722.461 86.0259 722.888C85.8553 723.229 85.514 723.4 85.002 723.4H56.458V795.208C56.458 796.232 55.9459 796.744 54.9219 796.744H41.7379C40.7139 796.744 40.2019 796.232 40.2019 795.208V723.4H16.6499C16.2233 723.4 15.8393 723.272 15.4979 723.016C15.2419 722.675 15.1139 722.291 15.1139 721.864V708.68Z" stroke="white" stroke-width="4" mask="url(#path-1-outside-1_89_2)"/>
</svg>
