<svg width="32" height="33" viewBox="0 0 32 33" fill="none" xmlns="http://www.w3.org/2000/svg">
<path d="M26.6666 10.8905L16 17.697L5.33329 10.8905V8.16786L16 14.9744L26.6666 8.16786M26.6666 5.44525H5.33329C3.85329 5.44525 2.66663 6.65681 2.66663 8.16786V24.5035C2.66663 25.2256 2.94758 25.9181 3.44767 26.4287C3.94777 26.9393 4.62605 27.2261 5.33329 27.2261H26.6666C27.3739 27.2261 28.0521 26.9393 28.5522 26.4287C29.0523 25.9181 29.3333 25.2256 29.3333 24.5035V8.16786C29.3333 7.44578 29.0523 6.75327 28.5522 6.24269C28.0521 5.7321 27.3739 5.44525 26.6666 5.44525Z" fill="white"/>
</svg>
