<svg width="78" height="815" viewBox="0 0 78 815" fill="none" xmlns="http://www.w3.org/2000/svg">
<mask id="path-1-outside-1_89_12" maskUnits="userSpaceOnUse" x="-0.355469" y="0.452682" width="78" height="815" fill="black">
<rect fill="white" x="-0.355469" y="0.452682" width="78" height="815"/>
<path d="M6.31996 37.112C6.31996 32.184 7.21596 27.608 9.00796 23.384C10.864 19.096 13.328 15.416 16.4 12.344C19.536 9.208 23.216 6.77599 27.44 5.04799C31.664 3.25599 36.208 2.39199 41.072 2.45599C45.936 2.51999 50.48 3.47999 54.704 5.336C58.928 7.19199 62.576 9.71999 65.648 12.92C68.784 16.12 71.248 19.864 73.04 24.152C74.832 28.376 75.696 32.888 75.632 37.688C75.568 42.552 74.608 47.096 72.752 51.32C70.896 55.544 68.368 59.224 65.168 62.36C62.032 65.496 58.352 67.96 54.128 69.752C49.904 71.48 45.36 72.344 40.496 72.344C35.696 72.344 31.184 71.448 26.96 69.656C22.8 67.8 19.184 65.304 16.112 62.168C13.04 58.968 10.64 55.224 8.91196 50.936C7.18396 46.648 6.31996 42.04 6.31996 37.112ZM18.608 37.592C18.608 40.728 19.216 43.704 20.432 46.52C21.648 49.336 23.28 51.8 25.328 53.912C27.376 56.024 29.744 57.688 32.432 58.904C35.12 60.12 38 60.728 41.072 60.728C44.08 60.664 46.928 59.992 49.616 58.712C52.304 57.432 54.64 55.736 56.624 53.624C58.672 51.448 60.272 48.952 61.424 46.136C62.576 43.256 63.12 40.248 63.056 37.112C63.056 33.976 62.448 31 61.232 28.184C60.016 25.368 58.384 22.936 56.336 20.888C54.288 18.776 51.888 17.112 49.136 15.896C46.448 14.68 43.6 14.072 40.592 14.072C37.584 14.136 34.736 14.808 32.048 16.088C29.36 17.304 27.024 19 25.04 21.176C23.056 23.288 21.488 25.752 20.336 28.568C19.184 31.384 18.608 34.392 18.608 37.592ZM9.00796 110.76C9.00796 110.44 9.10396 110.184 9.29596 109.992C9.55196 109.736 9.83996 109.608 10.16 109.608H60.848C61.168 109.608 61.424 109.736 61.616 109.992C61.872 110.184 62 110.44 62 110.76V124.872C62 125.768 61.712 126.568 61.136 127.272L45.968 147.144L67.664 175.464C67.856 175.784 67.856 176.104 67.664 176.424C67.536 176.68 67.312 176.808 66.992 176.808H54.8C53.52 176.808 52.464 176.296 51.632 175.272L30.608 147.912C30.16 147.4 30.16 146.92 30.608 146.472L49.52 121.8H21.296V175.656C21.296 176.424 20.88 176.808 20.048 176.808H10.16C9.83996 176.808 9.55196 176.712 9.29596 176.52C9.10396 176.264 9.00796 175.976 9.00796 175.656V110.76ZM10.16 215.8H20.048C20.88 215.8 21.296 216.184 21.296 216.952V281.848C21.296 282.616 20.88 283 20.048 283H10.16C9.83996 283 9.55196 282.904 9.29596 282.712C9.10396 282.456 9.00796 282.168 9.00796 281.848V216.952C9.00796 216.632 9.10396 216.376 9.29596 216.184C9.55196 215.928 9.83996 215.8 10.16 215.8ZM6.31996 355.112C6.31996 350.184 7.21596 345.608 9.00796 341.384C10.864 337.096 13.328 333.416 16.4 330.344C19.536 327.208 23.216 324.776 27.44 323.048C31.664 321.256 36.208 320.392 41.072 320.456C45.744 320.52 50.128 321.416 54.224 323.144C58.32 324.808 61.904 327.144 64.976 330.152C65.488 330.664 65.52 331.176 65.072 331.688L58.928 339.656C58.736 339.976 58.448 340.168 58.064 340.232C57.744 340.232 57.456 340.072 57.2 339.752C55.152 337.384 52.688 335.496 49.808 334.088C46.928 332.68 43.856 332.008 40.592 332.072C37.584 332.072 34.736 332.712 32.048 333.992C29.36 335.272 27.024 336.968 25.04 339.08C23.056 341.192 21.488 343.688 20.336 346.568C19.184 349.384 18.608 352.392 18.608 355.592C18.608 358.728 19.216 361.704 20.432 364.52C21.648 367.336 23.28 369.8 25.328 371.912C27.376 374.024 29.744 375.688 32.432 376.904C35.12 378.12 38 378.728 41.072 378.728C43.568 378.664 45.936 378.184 48.176 377.288C50.48 376.392 52.56 375.176 54.416 373.64C56.336 372.104 57.968 370.312 59.312 368.264C60.656 366.152 61.648 363.88 62.288 361.448H43.568C43.248 361.448 42.992 361.32 42.8 361.064C42.672 360.744 42.704 360.424 42.896 360.104L49.04 351.08C49.872 349.928 50.96 349.352 52.304 349.352H75.056C75.248 350.44 75.376 351.496 75.44 352.52C75.568 353.544 75.6 354.6 75.536 355.688C75.472 360.552 74.512 365.096 72.656 369.32C70.864 373.544 68.368 377.224 65.168 380.36C62.032 383.496 58.352 385.96 54.128 387.752C49.904 389.48 45.36 390.344 40.496 390.344C35.696 390.344 31.184 389.448 26.96 387.656C22.8 385.8 19.184 383.304 16.112 380.168C13.04 376.968 10.64 373.224 8.91196 368.936C7.18396 364.648 6.31996 360.04 6.31996 355.112ZM10.16 427.8H20.048C20.88 427.8 21.296 428.184 21.296 428.952V493.848C21.296 494.616 20.88 495 20.048 495H10.16C9.83996 495 9.55196 494.904 9.29596 494.712C9.10396 494.456 9.00796 494.168 9.00796 493.848V428.952C9.00796 428.632 9.10396 428.376 9.29596 428.184C9.55196 427.928 9.83996 427.8 10.16 427.8ZM9.00796 599.848V534.952C9.00796 534.632 9.10396 534.376 9.29596 534.184C9.55196 533.928 9.83996 533.8 10.16 533.8H19.28C20.56 533.8 21.616 534.312 22.448 535.336L57.008 580.264V534.952C57.008 534.184 57.392 533.8 58.16 533.8H68.048C68.816 533.8 69.2 534.184 69.2 534.952V599.848C69.2 600.616 68.816 601 68.048 601H58.928C57.648 601 56.592 600.488 55.76 599.464L21.296 554.536V599.848C21.296 600.616 20.88 601 20.048 601H10.16C9.83996 601 9.55196 600.904 9.29596 600.712C9.10396 600.456 9.00796 600.168 9.00796 599.848ZM2.86396 705.656L52.208 641.336C53.04 640.312 54.096 639.8 55.376 639.8H64.496C65.264 639.8 65.648 640.184 65.648 640.952V705.848C65.648 706.616 65.264 707 64.496 707H55.376C54.096 707 53.04 706.488 52.208 705.464L35.6 683.768L18.896 705.464C18.064 706.488 17.008 707 15.728 707H3.53596C3.21596 707 2.95996 706.872 2.76796 706.616C2.57596 706.296 2.60796 705.976 2.86396 705.656ZM43.568 673.4L53.456 686.264V660.536L43.568 673.4ZM10.16 745.8H20.048C20.88 745.8 21.296 746.184 21.296 746.952V800.808H48.176C48.56 800.808 48.816 800.968 48.944 801.288C49.136 801.608 49.136 801.896 48.944 802.152L41.744 811.464C40.912 812.488 39.888 813 38.672 813H10.16C9.83996 813 9.55196 812.904 9.29596 812.712C9.10396 812.456 9.00796 812.168 9.00796 811.848V746.952C9.00796 746.632 9.10396 746.376 9.29596 746.184C9.55196 745.928 9.83996 745.8 10.16 745.8Z"/>
</mask>
<path d="M6.31996 37.112C6.31996 32.184 7.21596 27.608 9.00796 23.384C10.864 19.096 13.328 15.416 16.4 12.344C19.536 9.208 23.216 6.77599 27.44 5.04799C31.664 3.25599 36.208 2.39199 41.072 2.45599C45.936 2.51999 50.48 3.47999 54.704 5.336C58.928 7.19199 62.576 9.71999 65.648 12.92C68.784 16.12 71.248 19.864 73.04 24.152C74.832 28.376 75.696 32.888 75.632 37.688C75.568 42.552 74.608 47.096 72.752 51.32C70.896 55.544 68.368 59.224 65.168 62.36C62.032 65.496 58.352 67.96 54.128 69.752C49.904 71.48 45.36 72.344 40.496 72.344C35.696 72.344 31.184 71.448 26.96 69.656C22.8 67.8 19.184 65.304 16.112 62.168C13.04 58.968 10.64 55.224 8.91196 50.936C7.18396 46.648 6.31996 42.04 6.31996 37.112ZM18.608 37.592C18.608 40.728 19.216 43.704 20.432 46.52C21.648 49.336 23.28 51.8 25.328 53.912C27.376 56.024 29.744 57.688 32.432 58.904C35.12 60.12 38 60.728 41.072 60.728C44.08 60.664 46.928 59.992 49.616 58.712C52.304 57.432 54.64 55.736 56.624 53.624C58.672 51.448 60.272 48.952 61.424 46.136C62.576 43.256 63.12 40.248 63.056 37.112C63.056 33.976 62.448 31 61.232 28.184C60.016 25.368 58.384 22.936 56.336 20.888C54.288 18.776 51.888 17.112 49.136 15.896C46.448 14.68 43.6 14.072 40.592 14.072C37.584 14.136 34.736 14.808 32.048 16.088C29.36 17.304 27.024 19 25.04 21.176C23.056 23.288 21.488 25.752 20.336 28.568C19.184 31.384 18.608 34.392 18.608 37.592ZM9.00796 110.76C9.00796 110.44 9.10396 110.184 9.29596 109.992C9.55196 109.736 9.83996 109.608 10.16 109.608H60.848C61.168 109.608 61.424 109.736 61.616 109.992C61.872 110.184 62 110.44 62 110.76V124.872C62 125.768 61.712 126.568 61.136 127.272L45.968 147.144L67.664 175.464C67.856 175.784 67.856 176.104 67.664 176.424C67.536 176.68 67.312 176.808 66.992 176.808H54.8C53.52 176.808 52.464 176.296 51.632 175.272L30.608 147.912C30.16 147.4 30.16 146.92 30.608 146.472L49.52 121.8H21.296V175.656C21.296 176.424 20.88 176.808 20.048 176.808H10.16C9.83996 176.808 9.55196 176.712 9.29596 176.52C9.10396 176.264 9.00796 175.976 9.00796 175.656V110.76ZM10.16 215.8H20.048C20.88 215.8 21.296 216.184 21.296 216.952V281.848C21.296 282.616 20.88 283 20.048 283H10.16C9.83996 283 9.55196 282.904 9.29596 282.712C9.10396 282.456 9.00796 282.168 9.00796 281.848V216.952C9.00796 216.632 9.10396 216.376 9.29596 216.184C9.55196 215.928 9.83996 215.8 10.16 215.8ZM6.31996 355.112C6.31996 350.184 7.21596 345.608 9.00796 341.384C10.864 337.096 13.328 333.416 16.4 330.344C19.536 327.208 23.216 324.776 27.44 323.048C31.664 321.256 36.208 320.392 41.072 320.456C45.744 320.52 50.128 321.416 54.224 323.144C58.32 324.808 61.904 327.144 64.976 330.152C65.488 330.664 65.52 331.176 65.072 331.688L58.928 339.656C58.736 339.976 58.448 340.168 58.064 340.232C57.744 340.232 57.456 340.072 57.2 339.752C55.152 337.384 52.688 335.496 49.808 334.088C46.928 332.68 43.856 332.008 40.592 332.072C37.584 332.072 34.736 332.712 32.048 333.992C29.36 335.272 27.024 336.968 25.04 339.08C23.056 341.192 21.488 343.688 20.336 346.568C19.184 349.384 18.608 352.392 18.608 355.592C18.608 358.728 19.216 361.704 20.432 364.52C21.648 367.336 23.28 369.8 25.328 371.912C27.376 374.024 29.744 375.688 32.432 376.904C35.12 378.12 38 378.728 41.072 378.728C43.568 378.664 45.936 378.184 48.176 377.288C50.48 376.392 52.56 375.176 54.416 373.64C56.336 372.104 57.968 370.312 59.312 368.264C60.656 366.152 61.648 363.88 62.288 361.448H43.568C43.248 361.448 42.992 361.32 42.8 361.064C42.672 360.744 42.704 360.424 42.896 360.104L49.04 351.08C49.872 349.928 50.96 349.352 52.304 349.352H75.056C75.248 350.44 75.376 351.496 75.44 352.52C75.568 353.544 75.6 354.6 75.536 355.688C75.472 360.552 74.512 365.096 72.656 369.32C70.864 373.544 68.368 377.224 65.168 380.36C62.032 383.496 58.352 385.96 54.128 387.752C49.904 389.48 45.36 390.344 40.496 390.344C35.696 390.344 31.184 389.448 26.96 387.656C22.8 385.8 19.184 383.304 16.112 380.168C13.04 376.968 10.64 373.224 8.91196 368.936C7.18396 364.648 6.31996 360.04 6.31996 355.112ZM10.16 427.8H20.048C20.88 427.8 21.296 428.184 21.296 428.952V493.848C21.296 494.616 20.88 495 20.048 495H10.16C9.83996 495 9.55196 494.904 9.29596 494.712C9.10396 494.456 9.00796 494.168 9.00796 493.848V428.952C9.00796 428.632 9.10396 428.376 9.29596 428.184C9.55196 427.928 9.83996 427.8 10.16 427.8ZM9.00796 599.848V534.952C9.00796 534.632 9.10396 534.376 9.29596 534.184C9.55196 533.928 9.83996 533.8 10.16 533.8H19.28C20.56 533.8 21.616 534.312 22.448 535.336L57.008 580.264V534.952C57.008 534.184 57.392 533.8 58.16 533.8H68.048C68.816 533.8 69.2 534.184 69.2 534.952V599.848C69.2 600.616 68.816 601 68.048 601H58.928C57.648 601 56.592 600.488 55.76 599.464L21.296 554.536V599.848C21.296 600.616 20.88 601 20.048 601H10.16C9.83996 601 9.55196 600.904 9.29596 600.712C9.10396 600.456 9.00796 600.168 9.00796 599.848ZM2.86396 705.656L52.208 641.336C53.04 640.312 54.096 639.8 55.376 639.8H64.496C65.264 639.8 65.648 640.184 65.648 640.952V705.848C65.648 706.616 65.264 707 64.496 707H55.376C54.096 707 53.04 706.488 52.208 705.464L35.6 683.768L18.896 705.464C18.064 706.488 17.008 707 15.728 707H3.53596C3.21596 707 2.95996 706.872 2.76796 706.616C2.57596 706.296 2.60796 705.976 2.86396 705.656ZM43.568 673.4L53.456 686.264V660.536L43.568 673.4ZM10.16 745.8H20.048C20.88 745.8 21.296 746.184 21.296 746.952V800.808H48.176C48.56 800.808 48.816 800.968 48.944 801.288C49.136 801.608 49.136 801.896 48.944 802.152L41.744 811.464C40.912 812.488 39.888 813 38.672 813H10.16C9.83996 813 9.55196 812.904 9.29596 812.712C9.10396 812.456 9.00796 812.168 9.00796 811.848V746.952C9.00796 746.632 9.10396 746.376 9.29596 746.184C9.55196 745.928 9.83996 745.8 10.16 745.8Z" stroke="white" stroke-width="4" mask="url(#path-1-outside-1_89_12)"/>
</svg>
