<svg width="173" height="52" viewBox="0 0 173 52" fill="none" xmlns="http://www.w3.org/2000/svg">
<path d="M0.26001 10.116C0.26001 8.67865 0.521343 7.34399 1.04401 6.11199C1.58534 4.86132 2.30401 3.78799 3.20001 2.89199C4.11468 1.97732 5.18801 1.26798 6.42001 0.763985C7.65201 0.241318 8.97734 -0.0106819 10.396 0.00798454C11.8147 0.026651 13.14 0.306651 14.372 0.847985C15.604 1.38932 16.668 2.12665 17.564 3.05999C18.4787 3.99332 19.1973 5.08532 19.72 6.33598C20.2427 7.56799 20.4947 8.88399 20.476 10.284C20.4573 11.7027 20.1773 13.028 19.636 14.26C19.0947 15.492 18.3573 16.5653 17.424 17.48C16.5093 18.3947 15.436 19.1133 14.204 19.636C12.972 20.14 11.6467 20.392 10.228 20.392C8.82801 20.392 7.51201 20.1307 6.28001 19.608C5.06668 19.0667 4.01201 18.3387 3.11601 17.424C2.22001 16.4907 1.52001 15.3987 1.01601 14.148C0.51201 12.8973 0.26001 11.5533 0.26001 10.116ZM3.84401 10.256C3.84401 11.1707 4.02134 12.0387 4.37601 12.86C4.73068 13.6813 5.20668 14.4 5.80401 15.016C6.40134 15.632 7.09201 16.1173 7.87601 16.472C8.66001 16.8267 9.50001 17.004 10.396 17.004C11.2733 16.9853 12.104 16.7893 12.888 16.416C13.672 16.0427 14.3533 15.548 14.932 14.932C15.5293 14.2973 15.996 13.5693 16.332 12.748C16.668 11.908 16.8267 11.0307 16.808 10.116C16.808 9.20132 16.6307 8.33332 16.276 7.51199C15.9213 6.69065 15.4453 5.98132 14.848 5.38399C14.2507 4.76799 13.5507 4.28265 12.748 3.92799C11.964 3.57332 11.1333 3.39598 10.256 3.39598C9.37868 3.41465 8.54801 3.61065 7.76401 3.98399C6.98001 4.33865 6.29868 4.83332 5.72001 5.46798C5.14134 6.08398 4.68401 6.80265 4.34801 7.62398C4.01201 8.44532 3.84401 9.32265 3.84401 10.256Z" fill="white"/>
<path d="M23.6846 0.679984C23.6846 0.586651 23.7126 0.511985 23.7686 0.455985C23.8433 0.381319 23.9273 0.343985 24.0206 0.343985H38.8046C38.898 0.343985 38.9726 0.381319 39.0286 0.455985C39.1033 0.511985 39.1406 0.586651 39.1406 0.679984V4.79598C39.1406 5.05732 39.0566 5.29065 38.8886 5.49599L34.4646 11.292L40.7926 19.552C40.8486 19.6453 40.8486 19.7387 40.7926 19.832C40.7553 19.9067 40.69 19.944 40.5966 19.944H37.0406C36.6673 19.944 36.3593 19.7947 36.1166 19.496L29.9846 11.516C29.854 11.3667 29.854 11.2267 29.9846 11.096L35.5006 3.89998H27.2686V19.608C27.2686 19.832 27.1473 19.944 26.9046 19.944H24.0206C23.9273 19.944 23.8433 19.916 23.7686 19.86C23.7126 19.7853 23.6846 19.7013 23.6846 19.608V0.679984Z" fill="white"/>
<path d="M43.4347 0.399985H46.3187C46.5614 0.399985 46.6827 0.511985 46.6827 0.735985V19.664C46.6827 19.888 46.5614 20 46.3187 20H43.4347C43.3414 20 43.2574 19.972 43.1827 19.916C43.1267 19.8413 43.0987 19.7573 43.0987 19.664V0.735985C43.0987 0.642652 43.1267 0.567985 43.1827 0.511985C43.2574 0.437318 43.3414 0.399985 43.4347 0.399985Z" fill="white"/>
<path d="M49.9436 10.116C49.9436 8.67865 50.2049 7.34399 50.7276 6.11199C51.2689 4.86132 51.9876 3.78799 52.8836 2.89199C53.7983 1.97732 54.8716 1.26798 56.1036 0.763985C57.3356 0.241318 58.6609 -0.0106819 60.0796 0.00798454C61.4423 0.026651 62.7209 0.287984 63.9156 0.791984C65.1103 1.27732 66.1556 1.95865 67.0516 2.83598C67.2009 2.98532 67.2103 3.13465 67.0796 3.28399L65.2876 5.60799C65.2316 5.70132 65.1476 5.75732 65.0356 5.77599C64.9423 5.77599 64.8583 5.72932 64.7836 5.63599C64.1863 4.94532 63.4676 4.39465 62.6276 3.98399C61.7876 3.57332 60.8916 3.37732 59.9396 3.39598C59.0623 3.39598 58.2316 3.58265 57.4476 3.95599C56.6636 4.32932 55.9823 4.82399 55.4036 5.43998C54.8249 6.05599 54.3676 6.78399 54.0316 7.62398C53.6956 8.44532 53.5276 9.32265 53.5276 10.256C53.5276 11.1707 53.7049 12.0387 54.0596 12.86C54.4143 13.6813 54.8903 14.4 55.4876 15.016C56.0849 15.632 56.7756 16.1173 57.5596 16.472C58.3436 16.8267 59.1836 17.004 60.0796 17.004C60.8076 16.9853 61.4983 16.8453 62.1516 16.584C62.8236 16.3227 63.4303 15.968 63.9716 15.52C64.5316 15.072 65.0076 14.5493 65.3996 13.952C65.7916 13.336 66.0809 12.6733 66.2676 11.964H60.8076C60.7143 11.964 60.6396 11.9267 60.5836 11.852C60.5463 11.7587 60.5556 11.6653 60.6116 11.572L62.4036 8.93999C62.6463 8.60398 62.9636 8.43599 63.3556 8.43599H69.9916C70.0476 8.75332 70.0849 9.06132 70.1036 9.35999C70.1409 9.65865 70.1503 9.96665 70.1316 10.284C70.1129 11.7027 69.8329 13.028 69.2916 14.26C68.7689 15.492 68.0409 16.5653 67.1076 17.48C66.1929 18.3947 65.1196 19.1133 63.8876 19.636C62.6556 20.14 61.3303 20.392 59.9116 20.392C58.5116 20.392 57.1956 20.1307 55.9636 19.608C54.7503 19.0667 53.6956 18.3387 52.7996 17.424C51.9036 16.4907 51.2036 15.3987 50.6996 14.148C50.1956 12.8973 49.9436 11.5533 49.9436 10.116Z" fill="white"/>
<path d="M73.7042 0.399985H76.5882C76.8309 0.399985 76.9522 0.511985 76.9522 0.735985V19.664C76.9522 19.888 76.8309 20 76.5882 20H73.7042C73.6109 20 73.5269 19.972 73.4522 19.916C73.3962 19.8413 73.3682 19.7573 73.3682 19.664V0.735985C73.3682 0.642652 73.3962 0.567985 73.4522 0.511985C73.5269 0.437318 73.6109 0.399985 73.7042 0.399985Z" fill="white"/>
<path d="M80.9971 19.664V0.735985C80.9971 0.642652 81.0251 0.567985 81.0811 0.511985C81.1558 0.437318 81.2398 0.399985 81.3331 0.399985H83.9931C84.3665 0.399985 84.6745 0.549318 84.9171 0.847985L94.9971 13.952V0.735985C94.9971 0.511985 95.1091 0.399985 95.3331 0.399985H98.2171C98.4411 0.399985 98.5531 0.511985 98.5531 0.735985V19.664C98.5531 19.888 98.4411 20 98.2171 20H95.5571C95.1838 20 94.8758 19.8507 94.6331 19.552L84.5811 6.44799V19.664C84.5811 19.888 84.4598 20 84.2171 20H81.3331C81.2398 20 81.1558 19.972 81.0811 19.916C81.0251 19.8413 80.9971 19.7573 80.9971 19.664Z" fill="white"/>
<path d="M100.807 19.608L115.199 0.847985C115.441 0.549318 115.749 0.399985 116.123 0.399985H118.783C119.007 0.399985 119.119 0.511985 119.119 0.735985V19.664C119.119 19.888 119.007 20 118.783 20H116.123C115.749 20 115.441 19.8507 115.199 19.552L110.355 13.224L105.483 19.552C105.24 19.8507 104.932 20 104.559 20H101.003C100.909 20 100.835 19.9627 100.779 19.888C100.723 19.7947 100.732 19.7013 100.807 19.608ZM112.679 10.2L115.563 13.952V6.44799L112.679 10.2Z" fill="white"/>
<path d="M123.497 0.399985H126.381C126.624 0.399985 126.745 0.511985 126.745 0.735985V16.444H134.585C134.697 16.444 134.772 16.4907 134.809 16.584C134.865 16.6773 134.865 16.7613 134.809 16.836L132.709 19.552C132.467 19.8507 132.168 20 131.813 20H123.497C123.404 20 123.32 19.972 123.245 19.916C123.189 19.8413 123.161 19.7573 123.161 19.664V0.735985C123.161 0.642652 123.189 0.567985 123.245 0.511985C123.32 0.437318 123.404 0.399985 123.497 0.399985Z" fill="white"/>
<path d="M0.26001 41.116C0.26001 39.6787 0.521343 38.344 1.04401 37.112C1.58534 35.88 2.30401 34.8067 3.20001 33.892C4.11468 32.9773 5.18801 32.268 6.42001 31.764C7.65201 31.2413 8.97734 30.9893 10.396 31.008C11.908 31.0267 13.2987 31.3347 14.568 31.932C15.856 32.5293 16.9667 33.3507 17.9 34.396C17.956 34.4706 17.9747 34.5546 17.956 34.648C17.956 34.7413 17.9187 34.816 17.844 34.872L15.632 36.748C15.5573 36.804 15.4733 36.832 15.38 36.832C15.2867 36.8133 15.212 36.7667 15.156 36.692C14.54 35.9827 13.812 35.4227 12.972 35.012C12.132 34.5827 11.2267 34.3773 10.256 34.396C9.37868 34.4147 8.54801 34.6107 7.76401 34.984C6.98001 35.3387 6.29868 35.8333 5.72001 36.468C5.14134 37.084 4.68401 37.8027 4.34801 38.624C4.01201 39.4453 3.84401 40.3227 3.84401 41.256C3.84401 42.1893 4.02134 43.0667 4.37601 43.888C4.73068 44.7093 5.20668 45.428 5.80401 46.044C6.40134 46.66 7.09201 47.1453 7.87601 47.5C8.66001 47.836 9.50001 48.004 10.396 48.004C11.3293 47.9853 12.2067 47.7707 13.028 47.36C13.8493 46.9493 14.5587 46.3893 15.156 45.68C15.212 45.6053 15.2867 45.568 15.38 45.568C15.4733 45.5493 15.5573 45.5773 15.632 45.652L17.844 47.528C17.9187 47.584 17.956 47.6587 17.956 47.752C17.9747 47.8453 17.956 47.9293 17.9 48.004C16.948 49.068 15.8187 49.908 14.512 50.524C13.2053 51.1213 11.7773 51.4107 10.228 51.392C8.82801 51.392 7.51201 51.1307 6.28001 50.608C5.06668 50.0667 4.01201 49.3386 3.11601 48.424C2.22001 47.4907 1.52001 46.3987 1.01601 45.148C0.51201 43.8973 0.26001 42.5533 0.26001 41.116Z" fill="white"/>
<path d="M21.1143 50.664V31.736C21.1143 31.6427 21.1423 31.568 21.1983 31.512C21.273 31.4373 21.357 31.4 21.4503 31.4H24.3343C24.577 31.4 24.6983 31.512 24.6983 31.736V39.436H32.7343V31.736C32.7343 31.6427 32.7623 31.568 32.8183 31.512C32.893 31.4373 32.977 31.4 33.0703 31.4H35.9823C36.0757 31.4 36.1503 31.4373 36.2063 31.512C36.281 31.568 36.3183 31.6427 36.3183 31.736V50.664C36.3183 50.7573 36.281 50.8413 36.2063 50.916C36.1503 50.972 36.0757 51 35.9823 51H33.0703C32.977 51 32.893 50.972 32.8183 50.916C32.7623 50.8413 32.7343 50.7573 32.7343 50.664V42.992H24.6983V50.664C24.6983 50.888 24.577 51 24.3343 51H21.4503C21.357 51 21.273 50.972 21.1983 50.916C21.1423 50.8413 21.1143 50.7573 21.1143 50.664Z" fill="white"/>
<path d="M38.545 50.608L52.937 31.848C53.1796 31.5493 53.4876 31.4 53.861 31.4H56.521C56.745 31.4 56.857 31.512 56.857 31.736V50.664C56.857 50.888 56.745 51 56.521 51H53.861C53.4876 51 53.1796 50.8507 52.937 50.552L48.093 44.224L43.221 50.552C42.9783 50.8507 42.6703 51 42.297 51H38.741C38.6476 51 38.573 50.9627 38.517 50.888C38.461 50.7947 38.4703 50.7013 38.545 50.608ZM50.417 41.2L53.301 44.952V37.448L50.417 41.2Z" fill="white"/>
<path d="M60.8995 31.68C60.8995 31.5867 60.9275 31.512 60.9835 31.456C61.0581 31.3813 61.1421 31.344 61.2355 31.344H76.0195C76.1128 31.344 76.1875 31.3813 76.2435 31.456C76.3181 31.512 76.3555 31.5867 76.3555 31.68V35.796C76.3555 36.0573 76.2715 36.2907 76.1035 36.496L71.6795 42.292L78.0075 50.552C78.0635 50.6453 78.0635 50.7387 78.0075 50.832C77.9701 50.9067 77.9048 50.944 77.8115 50.944H74.2555C73.8821 50.944 73.5742 50.7947 73.3315 50.496L67.1995 42.516C67.0688 42.3667 67.0688 42.2267 67.1995 42.096L72.7155 34.9H64.4835V50.608C64.4835 50.832 64.3621 50.944 64.1195 50.944H61.2355C61.1421 50.944 61.0581 50.916 60.9835 50.86C60.9275 50.7853 60.8995 50.7013 60.8995 50.608V31.68Z" fill="white"/>
<path d="M78.5215 50.608L92.9135 31.848C93.1562 31.5493 93.4642 31.4 93.8375 31.4H96.4975C96.7215 31.4 96.8335 31.512 96.8335 31.736V50.664C96.8335 50.888 96.7215 51 96.4975 51H93.8375C93.4642 51 93.1562 50.8507 92.9135 50.552L88.0695 44.224L83.1975 50.552C82.9549 50.8507 82.6469 51 82.2735 51H78.7175C78.6242 51 78.5495 50.9627 78.4935 50.888C78.4375 50.7947 78.4469 50.7013 78.5215 50.608ZM90.3935 41.2L93.2775 44.952V37.448L90.3935 41.2Z" fill="white"/>
<path d="M100.092 41.116C100.092 39.6787 100.353 38.344 100.876 37.112C101.417 35.88 102.136 34.8067 103.032 33.892C103.947 32.9773 105.02 32.268 106.252 31.764C107.484 31.2413 108.809 30.9893 110.228 31.008C111.74 31.0267 113.131 31.3347 114.4 31.932C115.688 32.5293 116.799 33.3507 117.732 34.396C117.788 34.4706 117.807 34.5546 117.788 34.648C117.788 34.7413 117.751 34.816 117.676 34.872L115.464 36.748C115.389 36.804 115.305 36.832 115.212 36.832C115.119 36.8133 115.044 36.7667 114.988 36.692C114.372 35.9827 113.644 35.4227 112.804 35.012C111.964 34.5827 111.059 34.3773 110.088 34.396C109.211 34.4147 108.38 34.6107 107.596 34.984C106.812 35.3387 106.131 35.8333 105.552 36.468C104.973 37.084 104.516 37.8027 104.18 38.624C103.844 39.4453 103.676 40.3227 103.676 41.256C103.676 42.1893 103.853 43.0667 104.208 43.888C104.563 44.7093 105.039 45.428 105.636 46.044C106.233 46.66 106.924 47.1453 107.708 47.5C108.492 47.836 109.332 48.004 110.228 48.004C111.161 47.9853 112.039 47.7707 112.86 47.36C113.681 46.9493 114.391 46.3893 114.988 45.68C115.044 45.6053 115.119 45.568 115.212 45.568C115.305 45.5493 115.389 45.5773 115.464 45.652L117.676 47.528C117.751 47.584 117.788 47.6587 117.788 47.752C117.807 47.8453 117.788 47.9293 117.732 48.004C116.78 49.068 115.651 49.908 114.344 50.524C113.037 51.1213 111.609 51.4107 110.06 51.392C108.66 51.392 107.344 51.1307 106.112 50.608C104.899 50.0667 103.844 49.3386 102.948 48.424C102.052 47.4907 101.352 46.3987 100.848 45.148C100.344 43.8973 100.092 42.5533 100.092 41.116Z" fill="white"/>
<path d="M119.966 31.68C119.966 31.5867 119.994 31.512 120.05 31.456C120.125 31.3813 120.209 31.344 120.302 31.344H132.454C132.828 31.344 133.136 31.4933 133.378 31.792L135.45 34.508C135.525 34.6013 135.534 34.6946 135.478 34.788C135.441 34.8626 135.366 34.9 135.254 34.9H129.01V50.608C129.01 50.832 128.898 50.944 128.674 50.944H125.79C125.566 50.944 125.454 50.832 125.454 50.608V34.9H120.302C120.209 34.9 120.125 34.872 120.05 34.816C119.994 34.7413 119.966 34.6573 119.966 34.564V31.68Z" fill="white"/>
<path d="M138.017 31.4H150.981C151.093 31.4 151.167 31.4467 151.205 31.54C151.261 31.6147 151.251 31.6987 151.177 31.792L149.105 34.508C148.862 34.8067 148.554 34.956 148.181 34.956H141.265V39.436H148.265C148.489 39.436 148.601 39.548 148.601 39.772V42.628C148.601 42.8707 148.489 42.992 148.265 42.992H141.265V47.444H150.113C150.206 47.444 150.281 47.4813 150.337 47.556C150.411 47.612 150.449 47.6867 150.449 47.78V50.664C150.449 50.888 150.337 51 150.113 51H138.017C137.923 51 137.839 50.972 137.765 50.916C137.709 50.8413 137.681 50.7573 137.681 50.664V31.736C137.681 31.6427 137.709 31.568 137.765 31.512C137.839 31.4373 137.923 31.4 138.017 31.4Z" fill="white"/>
<path d="M155.263 31.68C155.263 31.5867 155.291 31.512 155.347 31.456C155.421 31.3813 155.505 31.344 155.599 31.344H170.383C170.476 31.344 170.551 31.3813 170.607 31.456C170.681 31.512 170.719 31.5867 170.719 31.68V35.796C170.719 36.0573 170.635 36.2907 170.467 36.496L166.043 42.292L172.371 50.552C172.427 50.6453 172.427 50.7387 172.371 50.832C172.333 50.9067 172.268 50.944 172.175 50.944H168.619C168.245 50.944 167.937 50.7947 167.695 50.496L161.563 42.516C161.432 42.3667 161.432 42.2267 161.563 42.096L167.079 34.9H158.847V50.608C158.847 50.832 158.725 50.944 158.483 50.944H155.599C155.505 50.944 155.421 50.916 155.347 50.86C155.291 50.7853 155.263 50.7013 155.263 50.608V31.68Z" fill="white"/>
</svg>
