<svg width="32" height="32" viewBox="0 0 32 32" fill="none" xmlns="http://www.w3.org/2000/svg">
<path d="M6.47215 1.64205e-05C5.62528 -0.00191732 4.78637 0.16696 4.0036 0.496951C3.22083 0.826942 2.5096 1.31155 1.91077 1.92294C1.31194 2.53434 0.837293 3.26048 0.514083 4.05967C0.190873 4.85887 0.0254658 5.71538 0.0273598 6.58002V25.42C0.0254658 26.2847 0.190873 27.1412 0.514083 27.9404C0.837293 28.7396 1.31194 29.4657 1.91077 30.0771C2.5096 30.6885 3.22083 31.1731 4.0036 31.5031C4.78637 31.8331 5.62528 32.0019 6.47215 32H24.925C25.7719 32.0019 26.6108 31.8331 27.3936 31.5031C28.1764 31.1731 28.8876 30.6885 29.4864 30.0771C30.0852 29.4657 30.5599 28.7396 30.8831 27.9404C31.2063 27.1412 31.3717 26.2847 31.3698 25.42V6.58002C31.3717 5.71538 31.2063 4.85887 30.8831 4.05967C30.5599 3.26048 30.0852 2.53434 29.4864 1.92294C28.8876 1.31155 28.1764 0.826942 27.3936 0.496951C26.6108 0.16696 25.7719 -0.00191732 24.925 1.64205e-05H6.47215ZM16.6715 6.06268C19.5198 6.06268 21.971 6.96402 23.7223 8.52535C24.5948 9.296 25.2936 10.2504 25.7706 11.3229C26.2476 12.3955 26.4916 13.5608 26.4856 14.7387C26.4922 17.2107 25.3364 19.3734 23.5381 20.8227C21.7425 22.2787 19.3265 23.0853 16.6715 23.0853C13.6496 23.0853 10.847 21.9627 10.847 21.9627V25.5867C11.3655 25.7414 12.2157 26.0733 11.6763 26.6253H7.58873C7.0533 26.0787 7.83686 25.7587 8.42975 25.5867V10.2213C7.0546 11.3013 6.3494 12.2347 5.99026 12.9293C6.40816 14.2893 5.61938 14.2214 5.61938 14.2214L4.19591 11.9147C4.19591 11.9147 9.24727 6.06268 16.6715 6.06268ZM16.4234 7.35735C14.565 7.35335 12.2653 7.98802 10.847 9.01602V20.544C12.1373 21.1933 14.091 21.6533 16.4103 21.6533H16.4234C18.5077 21.6533 20.3151 20.8627 21.5557 19.6094C22.799 18.3454 23.4963 16.6987 23.5042 14.6987C23.4976 12.6454 22.846 10.88 21.6497 9.55202C20.4509 8.22935 18.68 7.35868 16.4234 7.35735Z" fill="#1C31C8"/>
</svg>
