<?xml version="1.0" encoding="UTF-8"?>
<svg id="Layer_1" data-name="Layer 1" xmlns="http://www.w3.org/2000/svg" viewBox="0 0 500 500">
  <defs>
    <style>
      .cls-1 {
        fill: #fff;
      }

      .cls-2 {
        fill: #0f0e0e;
      }
    </style>
  </defs>
  <circle class="cls-2" cx="250" cy="250" r="250"/>
  <path class="cls-1" d="m309.25,164.64h-34.09v9.2h34.09v-9.2Zm-100.38,44.91l-15.15,5.95c-.54-6.85-2.44-15.78-5.68-26.79v192.1h-38.15v-182.36c-1.8,22.73-5.77,40.86-11.9,54.38l-24.35-10.82c7.94-16.59,12.09-41.04,12.45-73.32l23.81,2.98v-54.11h38.15v49.78l15.69-5.68c4.51,10.1,8.12,19.75,10.82,28.95h58.17v-12.99h-34.36v-12.99h-33.28v-30.3h33.28v-16.78h36.8v16.78h34.09v-16.78h36.8v16.78h32.47v30.3h-32.47v12.99h-33.82v12.99h63.85v30.84h-114.72v4.33c0,3.61.72,6.13,2.16,7.58,1.62,1.26,5.05,1.89,10.28,1.89h54.11c15.69,0,28.68-.99,38.96-2.98.9,11.9,2.07,22.73,3.52,32.47-6.49,1.62-19.66,2.44-39.5,2.44h-58.44c-19.12,0-32.2-2.98-39.23-8.93-7.03-6.13-10.55-17.05-10.55-32.74v-4.06h-13.8v-11.9Zm12.72,91.99v-25.97h35.17v27.6c0,10.64-.63,20.02-1.89,28.14-1.26,8.12-4.6,16.96-10.01,26.52-5.23,9.74-12.54,17.95-21.92,24.62-3.25-3.79-7.85-8.21-13.8-13.26-5.95-5.05-11.27-8.93-15.96-11.63,11.18-7.03,18.67-15.24,22.46-24.62,3.97-9.38,5.95-19.84,5.95-31.39Zm46.81,67.1v-92.26h35.72v92.26h-35.72Zm86.31-19.48h1.08c.9,0,1.44-.36,1.62-1.08.9-.54,1.44-2.34,1.62-5.41.36-2.52.72-9.65,1.08-21.37,6.31,5.77,15.06,10.55,26.25,14.34-1.08,15.33-2.44,24.89-4.06,28.68-1.98,5.41-5.23,9.47-9.74,12.18-3.61,2.34-8.75,3.52-15.42,3.52h-13.53c-8.48,0-15.15-2.53-20.02-7.58-4.69-5.59-7.03-15.96-7.03-31.12v-66.83h36.53v66.83c0,3.61.09,5.68.27,6.22.36,1.08.81,1.62,1.35,1.62Z"/>
</svg>